PathFileType	4	(X/Y/Z)	TVC_41_BWA_06_walk_RCNL2025.trc
DataRate	CameraRate	NumFrames	NumMarkers	Units	OrigDataRate	OrigDataStartFrame	OrigNumFrames
100	100	10	27	mm	100	109	867
Frame#	Time	R_Shoulder			L_Shoulder			C7			J_Notch			R_Elbow			L_Elbow			R_Wrist			L_Wrist			R_Asis			L_Asis			R_Psis			L_Psis			Sacral			Thoracic			Sternum			R_Thigh_Lateral			R_Knee_Lateral			R_Shank_Lateral			R_Ankle_Lateral			R_Heel			R_Toe			L_Thigh_Lateral			L_Knee_Lateral			L_Shank_Lateral			L_Ankle_Lateral			L_Heel			L_Toe		
		X1	Y1	Z1	X2	Y2	Z2	X3	Y3	Z3	X4	Y4	Z4	X5	Y5	Z5	X6	Y6	Z6	X7	Y7	Z7	X8	Y8	Z8	X9	Y9	Z9	X10	Y10	Z10	X11	Y11	Z11	X12	Y12	Z12	X13	Y13	Z13	X14	Y14	Z14	X15	Y15	Z15	X16	Y16	Z16	X17	Y17	Z17	X18	Y18	Z18	X19	Y19	Z19	X20	Y20	Z20	X21	Y21	Z21	X22	Y22	Z22	X23	Y23	Z23	X24	Y24	Z24	X25	Y25	Z25	X26	Y26	Z26	X27	Y27	Z27
109	1.08000000	-1567.966309	1245.779297	460.806458	-1483.091309	1268.382080	136.117050	-1569.857544	1321.211670	291.214142	-1459.888184	1203.560059	318.527100	-1691.857666	974.708618	448.825714	-1537.785278	988.603516	42.679878	-1498.574646	900.158752	472.729309	-1438.028931	808.084930	11.589107	-1556.190918	872.421692	412.287476	-1490.042236	848.447083	180.106323	-1695.622803	894.311646	298.104065	-1677.534912	879.968140	210.861710	-1686.578857	887.139893	254.482887	-1633.096069	1031.106689	251.257889	-1444.537842	1021.666992	303.766998	-1626.481934	659.012756	495.615692	-1628.803833	424.378387	420.924469	-1691.728882	305.028961	479.179077	-1705.260986	93.544662	414.932770	-1744.595337	75.574104	356.610748	-1605.872437	43.175610	442.763031	-1546.735107	581.504578	81.879189	-1486.871338	403.238983	178.894135	-1510.412109	265.356934	118.744766	-1556.297119	60.760704	185.599548	-1604.913696	42.430714	222.417831	-1436.029541	36.019699	210.961014
110	1.09000000	-1566.950195	1246.369263	458.765991	-1481.697998	1269.589478	134.262146	-1568.679321	1322.090088	289.315887	-1458.605835	1204.580078	316.564514	-1690.258911	974.949524	446.129761	-1535.272583	989.808411	40.221325	-1495.668762	901.323029	469.491089	-1434.224121	810.058289	9.251315	-1553.901733	873.810059	410.292084	-1487.681519	849.442993	178.045731	-1693.441040	894.320801	295.993011	-1675.311401	879.986694	208.841446	-1684.376221	887.153748	252.417229	-1631.377441	1031.820557	248.840347	-1442.901123	1022.720276	301.567200	-1622.227173	660.134949	494.340820	-1624.702271	425.303436	420.103241	-1688.612671	306.258392	478.419342	-1703.864990	94.975250	414.452637	-1743.207031	77.340935	356.152008	-1605.086182	43.359081	442.413940	-1545.232666	581.731262	80.549156	-1487.397461	403.207214	178.019226	-1510.673218	265.116119	118.203804	-1556.285400	60.700516	185.662949	-1604.882690	42.439907	222.441620	-1435.978638	35.995663	210.996506
111	1.10000000	-1565.942993	1246.887695	456.753693	-1480.378906	1270.720093	132.413010	-1567.532837	1322.902222	287.446136	-1457.361084	1205.530640	314.609436	-1688.737671	975.132507	443.471222	-1532.889282	990.947266	37.773750	-1492.937500	902.339905	466.272186	-1430.598328	811.950531	6.896008	-1551.616699	875.141052	408.341248	-1485.404907	850.372009	175.999588	-1691.302612	894.254150	293.984528	-1673.166626	879.917236	206.918488	-1682.234619	887.085693	250.451508	-1629.719116	1032.474365	246.469223	-1441.314819	1023.700256	299.370331	-1617.735107	661.186157	493.140076	-1620.406738	426.151001	419.345123	-1685.296143	307.424011	477.752075	-1702.447021	96.397202	414.033142	-1741.812012	79.088249	355.785309	-1604.306030	43.514511	442.061584	-1543.407104	582.017151	79.194275	-1487.829834	403.156738	177.148712	-1510.885620	264.863434	117.646408	-1556.296143	60.653122	185.713425	-1604.854980	42.456905	222.457687	-1435.935791	35.973412	211.014145
112	1.11000000	-1564.944092	1247.338379	454.769257	-1479.131592	1271.772339	130.568893	-1566.416016	1323.647583	285.603760	-1456.152222	1206.412231	312.662994	-1687.295654	975.265686	440.860413	-1530.636719	992.017029	35.340759	-1490.457031	903.181488	463.118332	-1427.159668	813.752838	4.524910	-1549.336426	876.410217	406.434143	-1483.209595	851.235291	173.968842	-1689.204956	894.116577	292.078613	-1671.098022	879.766052	205.092392	-1680.151489	886.941315	248.585503	-1628.118164	1033.067383	244.147034	-1439.776611	1024.607910	297.180237	-1613.015625	662.168518	491.999420	-1615.929565	426.922211	418.642914	-1681.788330	308.525208	477.167297	-1701.004028	97.810997	413.653595	-1740.399658	80.821678	355.480682	-1603.531982	43.646038	441.707703	-1541.309814	582.339355	77.824989	-1488.170532	403.089111	176.280670	-1511.051025	264.601044	117.080917	-1556.324951	60.618229	185.754013	-1604.829224	42.479610	222.471436	-1435.898438	35.954170	211.018692
113	1.12000000	-1563.952759	1247.726196	452.812286	-1477.953369	1272.746094	128.729309	-1565.326538	1324.326416	283.787567	-1454.976685	1207.226318	310.726349	-1685.933228	975.357361	438.307404	-1528.515991	993.015991	32.926239	-1488.275879	903.831299	460.065018	-1423.915527	815.457794	2.140224	-1547.062378	877.614624	404.570007	-1481.092529	852.034790	171.955139	-1687.145752	893.914490	290.273712	-1669.102417	879.540833	203.361374	-1678.124084	886.727661	246.817543	-1626.571289	1033.599976	241.876053	-1438.283447	1025.445068	295.000732	-1608.082031	663.086365	490.904236	-1611.290649	427.621002	417.990326	-1678.103149	309.562378	476.655548	-1699.531250	99.216293	413.293732	-1738.958130	82.546455	355.207458	-1602.761108	43.759945	441.354919	-1539.006348	582.674683	76.454880	-1488.425049	403.006592	175.413345	-1511.172852	264.331482	116.516510	-1556.367188	60.594864	185.787827	-1604.804810	42.506172	222.487991	-1435.864624	35.938217	211.015305
114	1.13000000	-1562.968140	1248.056396	450.882507	-1476.840820	1273.641724	126.894058	-1564.262329	1324.940063	281.996399	-1453.832397	1207.974976	308.800812	-1684.648193	975.415894	435.821808	-1526.527344	993.943726	30.534283	-1486.408875	904.288025	457.135986	-1420.872253	817.059265	-0.255386	-1544.797119	878.753113	402.748077	-1479.050659	852.772827	169.960754	-1685.123169	893.655701	288.566772	-1667.175903	879.250793	201.722427	-1676.149536	886.453247	245.144600	-1625.074585	1034.073120	239.658356	-1436.832153	1026.214600	292.835815	-1602.952881	663.945862	489.839874	-1606.516846	428.253815	417.381805	-1674.261597	310.537567	476.206604	-1698.022705	100.611496	412.934479	-1737.474609	84.266197	354.935242	-1601.987793	43.864014	441.007477	-1536.569702	583.001709	75.098541	-1488.601685	402.911835	174.544876	-1511.256348	264.057526	115.961426	-1556.417969	60.581253	185.817383	-1604.780640	42.534885	222.511414	-1435.832153	35.924896	211.008408
115	1.14000000	-1561.989502	1248.335571	448.979614	-1475.790405	1274.461060	125.063309	-1563.220947	1325.490479	280.229156	-1452.716553	1208.661255	306.887787	-1683.436646	975.449341	433.412292	-1524.670532	994.800659	28.169109	-1484.840698	904.565063	454.344955	-1418.035034	818.552338	-2.658811	-1542.544067	879.826111	400.967834	-1477.080566	853.452209	167.988556	-1683.135498	893.349121	286.953369	-1665.314453	878.906067	200.171478	-1674.224976	886.127594	243.562424	-1623.624390	1034.488892	237.495728	-1435.419556	1026.919922	290.689423	-1597.652466	664.755066	488.792450	-1601.641602	428.829376	416.812836	-1670.293213	311.455475	475.808136	-1696.470581	101.993240	412.559265	-1735.934204	85.981598	354.635132	-1601.203369	43.966728	440.671600	-1534.074829	583.303223	73.769577	-1488.711426	402.807892	173.673096	-1511.308960	263.781952	115.421219	-1556.472290	60.574753	185.843964	-1604.755737	42.564213	222.544312	-1435.799561	35.912762	211.000916
116	1.15000000	-1561.015991	1248.570312	447.103363	-1474.797485	1275.206543	123.237495	-1562.200195	1325.980347	278.484833	-1451.626709	1209.288208	304.988831	-1682.292603	975.465393	431.086395	-1522.944580	995.588257	25.834959	-1483.534119	904.686920	451.699081	-1415.408020	819.933258	-5.066535	-1540.307251	880.835266	399.228821	-1475.178467	854.076172	166.041855	-1681.181641	893.004333	285.427948	-1663.513428	878.517639	198.703430	-1672.347534	885.760986	242.065689	-1622.216675	1034.849731	235.389664	-1434.042236	1027.564941	288.565643	-1592.212158	665.523132	487.749603	-1596.704224	429.358124	416.279633	-1666.237549	312.323792	475.444763	-1694.864258	103.355965	412.154877	-1734.319336	87.689034	354.281281	-1600.395386	44.076485	440.355957	-1531.593140	583.567566	72.478806	-1488.766846	402.698151	172.795349	-1511.339600	263.507629	114.897545	-1556.524902	60.571896	185.867416	-1604.728760	42.592911	222.587448	-1435.765503	35.899815	210.993622
117	1.16000000	-1560.046753	1248.767456	445.253479	-1473.857300	1275.881104	121.417412	-1561.197632	1326.412842	276.762360	-1450.560303	1209.859863	303.105652	-1681.208374	975.471436	428.850128	-1521.347412	996.308777	23.536020	-1482.440063	904.684601	449.202316	-1412.994080	821.199371	-7.474667	-1538.091553	881.783569	397.530701	-1473.340942	854.648193	164.124374	-1679.260742	892.631287	283.983856	-1661.767944	878.096741	197.312393	-1670.514343	885.364014	240.648125	-1620.847534	1035.158936	233.341400	-1432.696899	1028.154297	286.468475	-1586.670044	666.260132	486.701172	-1591.748169	429.851471	415.779449	-1662.142334	313.152649	475.098450	-1693.190796	104.691658	411.712646	-1732.608765	89.379570	353.852600	-1599.547119	44.200748	440.071625	-1529.188721	583.788757	71.233238	-1488.782227	402.586212	171.908401	-1511.359863	263.237427	114.387619	-1556.570557	60.568626	185.886002	-1604.698975	42.620262	222.639587	-1435.729248	35.883873	210.985077
118	1.17000000	-1559.080933	1248.934204	443.429871	-1472.964233	1276.488281	119.604111	-1560.211182	1326.791626	275.060730	-1449.514404	1210.380127	301.239990	-1680.175049	975.474304	426.707855	-1519.876221	996.964844	21.276350	-1481.505493	904.590820	446.857468	-1410.794739	822.348969	-9.878990	-1535.902222	882.674927	395.873260	-1471.564209	855.171997	162.240021	-1677.372803	892.239929	282.613739	-1660.073120	877.654724	195.991913	-1668.722961	884.947327	239.302826	-1619.513062	1035.419922	231.351837	-1431.380371	1028.692261	284.402100	-1581.072510	666.976257	485.639648	-1586.819946	430.320953	415.310394	-1658.061768	313.953339	474.750641	-1691.433594	105.989838	411.229218	-1730.778198	91.038589	353.334290	-1598.636719	44.345455	439.832092	-1526.915527	583.965942	70.035805	-1488.772705	402.475830	171.008560	-1511.383057	262.974518	113.884399	-1556.604858	60.560848	185.896454	-1604.666138	42.646343	222.697479	-1435.691040	35.862965	210.971634
